<svg width="213" height="270" viewBox="0 0 213 270" fill="none" xmlns="http://www.w3.org/2000/svg">
<path d="M207.728 264.668L106.5 211.996L5.27228 264.668V5.27228H207.728V264.668Z" fill="#FF5A5A"/>
<path fill-rule="evenodd" clip-rule="evenodd" d="M64.7536 172.407C65.672 173.073 66.7597 173.413 67.8521 173.413C68.692 173.413 69.535 173.212 70.3069 172.807L106.514 153.759L142.732 172.788C144.508 173.722 146.661 173.565 148.284 172.385C149.908 171.205 150.72 169.206 150.38 167.228L143.453 126.906L172.743 98.3411C174.179 96.9398 174.696 94.8446 174.075 92.936C173.455 91.0274 171.805 89.6366 169.818 89.3487L129.33 83.4765L111.213 46.7936C110.325 44.9947 108.493 43.8559 106.486 43.8559H106.485C104.478 43.8564 102.645 44.9963 101.758 46.7962L83.661 83.4886L43.1763 89.3825C41.1907 89.6714 39.541 91.0628 38.921 92.9719C38.3015 94.8804 38.8187 96.9756 40.2565 98.3759L69.5608 126.925L62.6552 167.25C62.3162 169.229 63.1297 171.227 64.7536 172.407ZM78.9044 121.306L55.2661 98.2774L87.9237 93.5239C89.6408 93.274 91.125 92.1953 91.8926 90.6389L106.49 61.0414L121.104 90.631C121.872 92.1863 123.357 93.2645 125.074 93.5139L157.733 98.2505L134.107 121.292C132.865 122.504 132.298 124.249 132.592 125.959L138.18 158.484L108.965 143.134C107.43 142.327 105.595 142.328 104.058 143.135L74.8516 158.5L80.4217 125.973C80.7149 124.262 80.147 122.517 78.9044 121.306ZM125.83 88.2959L106.486 49.1281L87.1639 88.3059L43.9355 94.5994L75.2248 125.083L67.8521 168.14L106.513 147.802L145.184 168.119L137.788 125.066L169.061 94.5657L125.83 88.2959Z" fill="black"/>
<path d="M207.728 269.941C206.894 269.941 206.059 269.743 205.294 269.345L106.5 217.939L7.70596 269.345C6.07261 270.195 4.1129 270.132 2.53649 269.176C0.961664 268.219 0 266.511 0 264.668V103.6C0 100.688 2.36093 98.328 5.27228 98.328C8.18363 98.328 10.5446 100.688 10.5446 103.6V255.982L104.066 207.319C105.593 206.525 107.408 206.525 108.934 207.319L202.455 255.982V190.681C202.455 187.769 204.816 185.409 207.728 185.409C210.639 185.409 213 187.769 213 190.681V264.668C213 266.511 212.038 268.219 210.463 269.176C209.625 269.684 208.677 269.941 207.728 269.941Z" fill="black"/>
<path d="M207.728 156.235C204.816 156.235 202.455 153.875 202.455 150.963V10.5446H10.5446V61.1584C10.5446 64.0703 8.18363 66.4307 5.27228 66.4307C2.36093 66.4307 0 64.0703 0 61.1584V5.27228C0 2.3604 2.36093 0 5.27228 0H207.728C210.639 0 213 2.3604 213 5.27228V150.963C213 153.875 210.64 156.235 207.728 156.235Z" fill="black"/>
<path d="M5.27228 87.873C3.88567 87.873 2.52542 87.3089 1.54478 86.3283C0.564134 85.3476 0 83.9874 0 82.6008C0 81.2089 0.563607 79.8539 1.54478 78.868C2.52542 77.8873 3.88567 77.3285 5.27228 77.3285C6.65889 77.3285 8.01913 77.8873 8.99925 78.868C9.97989 79.8539 10.5446 81.2142 10.5446 82.6008C10.5446 83.9874 9.98042 85.3424 8.99925 86.3283C8.01913 87.3089 6.65889 87.873 5.27228 87.873Z" fill="black"/>
<path d="M207.728 175.567C206.341 175.567 204.981 175.003 204 174.022C203.02 173.041 202.455 171.681 202.455 170.295C202.455 168.908 203.019 167.548 204 166.567C204.981 165.586 206.341 165.022 207.728 165.022C209.114 165.022 210.475 165.586 211.455 166.567C212.435 167.548 213 168.908 213 170.295C213 171.681 212.436 173.041 211.455 174.022C210.475 175.003 209.114 175.567 207.728 175.567Z" fill="black"/>
</svg>
