<svg width="21" height="21" viewBox="0 0 21 21" fill="none" xmlns="http://www.w3.org/2000/svg">
<path fill-rule="evenodd" clip-rule="evenodd" d="M12.5239 10.5018L20.5785 2.44941C21.1422 1.88571 21.1388 0.9826 20.5785 0.421483C20.0172 -0.142212 19.114 -0.135338 18.5537 0.421483L10.5 8.47389L2.44634 0.421483C1.88256 -0.142212 0.979313 -0.138774 0.421547 0.421483C-0.142233 0.986037 -0.138796 1.88829 0.421547 2.44941L8.47605 10.5018L0.421547 18.5508C-0.142233 19.1145 -0.138796 20.0176 0.421547 20.5779C0.982751 21.1424 1.886 21.139 2.44634 20.5779L10.5 12.5255L18.5537 20.5779C19.1174 21.1424 20.0207 21.139 20.5785 20.5779C21.1422 20.0142 21.1388 19.1111 20.5785 18.5508L12.5239 10.5018Z" fill="#1B1464"/>
</svg>
