<svg width="81" height="83" viewBox="0 0 81 83" fill="none" xmlns="http://www.w3.org/2000/svg">
<path d="M13.9577 24.8961C12.9098 24.8961 11.9048 25.3101 11.1638 26.0471C10.4228 26.7841 10.0065 27.7837 10.0065 28.826V72.1927C10.0065 75.059 11.1513 77.8079 13.189 79.8346C15.2267 81.8614 17.9905 83 20.8723 83H60.1376C63.0194 83 65.7831 81.8614 67.8209 79.8346C69.8586 77.8079 71.0034 75.059 71.0034 72.1927V28.826C71.0034 27.7837 70.5871 26.7841 69.8461 26.0471C69.1051 25.3101 68.1001 24.8961 67.0522 24.8961C66.0043 24.8961 64.9993 25.3101 64.2583 26.0471C63.5173 26.7841 63.101 27.7837 63.101 28.826V72.1927C63.101 72.9744 62.7888 73.7241 62.233 74.2769C61.6773 74.8296 60.9235 75.1402 60.1376 75.1402H20.8723C20.0864 75.1402 19.3326 74.8296 18.7769 74.2769C18.2211 73.7241 17.9089 72.9744 17.9089 72.1927V28.826C17.9089 27.7837 17.4926 26.7841 16.7516 26.0471C16.0106 25.3101 15.0056 24.8961 13.9577 24.8961Z" fill="black"/>
<path d="M77.0488 12.5659H58.4484V6.87737C58.4484 5.05338 57.7199 3.30409 56.4232 2.01433C55.1264 0.724577 53.3677 0 51.5338 0H29.4662C27.6323 0 25.8736 0.724577 24.5768 2.01433C23.2801 3.30409 22.5516 5.05338 22.5516 6.87737V12.5659H3.95122C2.90329 12.5659 1.89828 12.98 1.15729 13.717C0.416288 14.454 0 15.4536 0 16.4959C0 17.5381 0.416288 18.5377 1.15729 19.2747C1.89828 20.0117 2.90329 20.4258 3.95122 20.4258H77.0488C78.0967 20.4258 79.1017 20.0117 79.8427 19.2747C80.5837 18.5377 81 17.5381 81 16.4959C81 15.4536 80.5837 14.454 79.8427 13.717C79.1017 12.98 78.0967 12.5659 77.0488 12.5659ZM30.454 7.85985H50.546V12.5659H30.454V7.85985Z" fill="black"/>
<path d="M44.4512 66.062V38.6508C44.4512 37.6085 44.0349 36.6089 43.2939 35.8719C42.5529 35.1349 41.5479 34.7209 40.5 34.7209C39.4521 34.7209 38.4471 35.1349 37.7061 35.8719C36.9651 36.6089 36.5488 37.6085 36.5488 38.6508V66.062C36.5488 67.1043 36.9651 68.1039 37.7061 68.8409C38.4471 69.5779 39.4521 69.992 40.5 69.992C41.5479 69.992 42.5529 69.5779 43.2939 68.8409C44.0349 68.1039 44.4512 67.1043 44.4512 66.062Z" fill="black"/>
<path d="M55.3171 66.062V38.6508C55.3171 37.6085 54.9008 36.6089 54.1598 35.8719C53.4188 35.1349 52.4138 34.7209 51.3659 34.7209C50.3179 34.7209 49.3129 35.1349 48.5719 35.8719C47.8309 36.6089 47.4146 37.6085 47.4146 38.6508V66.062C47.4146 67.1043 47.8309 68.1039 48.5719 68.8409C49.3129 69.5779 50.3179 69.992 51.3659 69.992C52.4138 69.992 53.4188 69.5779 54.1598 68.8409C54.9008 68.1039 55.3171 67.1043 55.3171 66.062Z" fill="black"/>
<path d="M33.5854 66.062V38.6508C33.5854 37.6085 33.1691 36.6089 32.4281 35.8719C31.6871 35.1349 30.6821 34.7209 29.6341 34.7209C28.5862 34.7209 27.5812 35.1349 26.8402 35.8719C26.0992 36.6089 25.6829 37.6085 25.6829 38.6508V66.062C25.6829 67.1043 26.0992 68.1039 26.8402 68.8409C27.5812 69.5779 28.5862 69.992 29.6341 69.992C30.6821 69.992 31.6871 69.5779 32.4281 68.8409C33.1691 68.1039 33.5854 67.1043 33.5854 66.062Z" fill="black"/>
</svg>
