<svg width="28" height="21" viewBox="0 0 28 21" fill="none" xmlns="http://www.w3.org/2000/svg">
<path d="M19.188 8.95129H2.09809C0.953678 8.95129 0 9.66171 0 10.5142C0 11.3667 0.953678 12.0771 2.09809 12.0771H19.2262C20.3706 12.0771 21.3243 11.3667 21.3243 10.5142C21.2861 9.63329 20.3706 8.95129 19.188 8.95129Z" fill="#1B1464"/>
<path d="M25.8638 0H2.09809C0.953678 0 0 0.71042 0 1.56292C0 2.41543 0.953678 3.12585 2.09809 3.12585H25.9019C27.0463 3.12585 28 2.41543 28 1.56292C27.9619 0.71042 27.0463 0 25.8638 0Z" fill="#1B1464"/>
<path d="M25.8638 17.8742H2.09809C0.953678 17.8742 0 18.5846 0 19.4371C0 20.2896 0.953678 21 2.09809 21H25.9019C27.0463 21 28 20.2896 28 19.4371C27.9619 18.5846 27.0463 17.8742 25.8638 17.8742Z" fill="#1B1464"/>
</svg>
